<svg xmlns="http://www.w3.org/2000/svg" xmlns:xlink="http://www.w3.org/1999/xlink" width="559" zoomAndPan="magnify" viewBox="0 0 419.25 297.749993" height="397" preserveAspectRatio="xMidYMid meet" version="1.0"><defs><g/><clipPath id="c9f4e80270"><path d="M 94.203125 54.621094 L 324.574219 54.621094 L 324.574219 252.292969 L 94.203125 252.292969 Z M 94.203125 54.621094 " clip-rule="nonzero"/></clipPath><clipPath id="256dfb8d9d"><path d="M 262 37.425781 L 277 37.425781 L 277 80 L 262 80 Z M 262 37.425781 " clip-rule="nonzero"/></clipPath></defs><path fill="#f4870a" d="M 161.652344 62.503906 L 255.738281 62.503906 C 256.609375 62.503906 257.3125 61.800781 257.3125 60.933594 L 257.3125 56.210938 C 257.3125 55.34375 256.609375 54.636719 255.738281 54.636719 L 161.652344 54.636719 C 160.785156 54.636719 160.082031 55.34375 160.082031 56.210938 L 160.082031 60.933594 C 160.082031 61.800781 160.785156 62.503906 161.652344 62.503906 " fill-opacity="1" fill-rule="nonzero"/><g clip-path="url(#c9f4e80270)"><path fill="#f4870a" d="M 300.078125 244.554688 L 118.703125 244.554688 C 109.515625 244.554688 102.070312 237.109375 102.070312 227.925781 L 102.070312 117.226562 L 316.707031 117.226562 L 316.707031 227.925781 C 316.707031 237.109375 309.261719 244.554688 300.078125 244.554688 Z M 300.078125 54.636719 L 282.484375 54.636719 C 281.617188 54.636719 280.914062 55.34375 280.914062 56.210938 L 280.914062 60.929688 C 280.914062 61.800781 281.617188 62.503906 282.484375 62.503906 L 300.078125 62.503906 C 309.25 62.503906 316.707031 69.960938 316.707031 79.152344 L 316.707031 109.359375 L 102.070312 109.359375 L 102.070312 79.152344 C 102.070312 69.960938 109.527344 62.503906 118.703125 62.503906 L 134.90625 62.503906 C 135.777344 62.503906 136.480469 61.800781 136.480469 60.929688 L 136.480469 56.210938 C 136.480469 55.34375 135.777344 54.636719 134.90625 54.636719 L 118.703125 54.636719 C 105.203125 54.636719 94.203125 65.636719 94.203125 79.152344 L 94.203125 227.925781 C 94.203125 241.398438 105.226562 252.421875 118.703125 252.421875 L 300.078125 252.421875 C 313.550781 252.421875 324.574219 241.398438 324.574219 227.925781 L 324.574219 79.152344 C 324.574219 65.636719 313.574219 54.636719 300.078125 54.636719 " fill-opacity="1" fill-rule="nonzero"/></g><path fill="#f4870a" d="M 148.28125 81.652344 C 152.183594 81.652344 155.359375 78.488281 155.359375 74.574219 L 155.359375 46.457031 C 155.359375 42.539062 152.183594 39.378906 148.28125 39.378906 C 144.363281 39.378906 141.199219 42.539062 141.199219 46.457031 L 141.199219 74.574219 C 141.199219 78.488281 144.363281 81.652344 148.28125 81.652344 " fill-opacity="1" fill-rule="nonzero"/><g clip-path="url(#256dfb8d9d)"><path fill="#f4870a" d="M 269.113281 79.71875 C 273.015625 79.71875 276.191406 76.539062 276.191406 72.636719 L 276.191406 44.503906 C 276.191406 40.605469 273.015625 37.425781 269.113281 37.425781 C 265.195312 37.425781 262.035156 40.605469 262.035156 44.503906 L 262.035156 72.636719 C 262.035156 76.539062 265.195312 79.71875 269.113281 79.71875 " fill-opacity="1" fill-rule="nonzero"/></g><g fill="#000000" fill-opacity="1"><g transform="translate(146.348162, 165.53039)"><g><path d="M 18.40625 -8.9375 C 18.40625 -5.988281 17.675781 -3.71875 16.21875 -2.125 C 14.757812 -0.539062 12.664062 0.25 9.9375 0.25 C 7.207031 0.25 5.109375 -0.539062 3.640625 -2.125 C 2.179688 -3.71875 1.453125 -5.992188 1.453125 -8.953125 C 1.453125 -11.921875 2.179688 -14.1875 3.640625 -15.75 C 5.109375 -17.3125 7.210938 -18.09375 9.953125 -18.09375 C 12.691406 -18.09375 14.785156 -17.300781 16.234375 -15.71875 C 17.679688 -14.144531 18.40625 -11.882812 18.40625 -8.9375 Z M 5.40625 -8.9375 C 5.40625 -6.945312 5.78125 -5.445312 6.53125 -4.4375 C 7.289062 -3.425781 8.425781 -2.921875 9.9375 -2.921875 C 12.945312 -2.921875 14.453125 -4.925781 14.453125 -8.9375 C 14.453125 -12.945312 12.953125 -14.953125 9.953125 -14.953125 C 8.453125 -14.953125 7.316406 -14.445312 6.546875 -13.4375 C 5.785156 -12.425781 5.40625 -10.925781 5.40625 -8.9375 Z M 5.40625 -8.9375 "/></g></g></g><g fill="#000000" fill-opacity="1"><g transform="translate(166.206988, 165.53039)"><g><path d="M 9.484375 -10.828125 L 6.265625 -10.828125 L 6.265625 0 L 2.546875 0 L 2.546875 -10.828125 L 0.5 -10.828125 L 0.5 -12.625 L 2.546875 -13.625 L 2.546875 -14.625 C 2.546875 -16.175781 2.925781 -17.304688 3.6875 -18.015625 C 4.457031 -18.734375 5.679688 -19.09375 7.359375 -19.09375 C 8.640625 -19.09375 9.78125 -18.898438 10.78125 -18.515625 L 9.828125 -15.796875 C 9.085938 -16.023438 8.398438 -16.140625 7.765625 -16.140625 C 7.234375 -16.140625 6.847656 -15.984375 6.609375 -15.671875 C 6.378906 -15.359375 6.265625 -14.957031 6.265625 -14.46875 L 6.265625 -13.625 L 9.484375 -13.625 Z M 9.484375 -10.828125 "/></g></g></g><g fill="#000000" fill-opacity="1"><g transform="translate(175.868373, 165.53039)"><g><path d="M 1.796875 -17.140625 C 1.796875 -18.347656 2.46875 -18.953125 3.8125 -18.953125 C 5.164062 -18.953125 5.84375 -18.347656 5.84375 -17.140625 C 5.84375 -16.566406 5.671875 -16.117188 5.328125 -15.796875 C 4.992188 -15.472656 4.488281 -15.3125 3.8125 -15.3125 C 2.46875 -15.3125 1.796875 -15.921875 1.796875 -17.140625 Z M 5.671875 0 L 1.953125 0 L 1.953125 -13.625 L 5.671875 -13.625 Z M 5.671875 0 "/></g></g></g><g fill="#000000" fill-opacity="1"><g transform="translate(183.482959, 165.53039)"><g><path d="M 7.484375 0.25 C 3.242188 0.25 1.125 -2.078125 1.125 -6.734375 C 1.125 -9.046875 1.695312 -10.8125 2.84375 -12.03125 C 4 -13.257812 5.65625 -13.875 7.8125 -13.875 C 9.382812 -13.875 10.796875 -13.566406 12.046875 -12.953125 L 10.953125 -10.078125 C 10.367188 -10.304688 9.820312 -10.492188 9.3125 -10.640625 C 8.8125 -10.796875 8.3125 -10.875 7.8125 -10.875 C 5.875 -10.875 4.90625 -9.503906 4.90625 -6.765625 C 4.90625 -4.097656 5.875 -2.765625 7.8125 -2.765625 C 8.519531 -2.765625 9.175781 -2.859375 9.78125 -3.046875 C 10.394531 -3.242188 11.007812 -3.546875 11.625 -3.953125 L 11.625 -0.765625 C 11.019531 -0.378906 10.410156 -0.113281 9.796875 0.03125 C 9.179688 0.175781 8.410156 0.25 7.484375 0.25 Z M 7.484375 0.25 "/></g></g></g><g fill="#000000" fill-opacity="1"><g transform="translate(196.31201, 165.53039)"><g><path d="M 1.796875 -17.140625 C 1.796875 -18.347656 2.46875 -18.953125 3.8125 -18.953125 C 5.164062 -18.953125 5.84375 -18.347656 5.84375 -17.140625 C 5.84375 -16.566406 5.671875 -16.117188 5.328125 -15.796875 C 4.992188 -15.472656 4.488281 -15.3125 3.8125 -15.3125 C 2.46875 -15.3125 1.796875 -15.921875 1.796875 -17.140625 Z M 5.671875 0 L 1.953125 0 L 1.953125 -13.625 L 5.671875 -13.625 Z M 5.671875 0 "/></g></g></g><g fill="#000000" fill-opacity="1"><g transform="translate(203.926596, 165.53039)"><g><path d="M 14.53125 0 L 10.8125 0 L 10.8125 -7.953125 C 10.8125 -8.941406 10.632812 -9.679688 10.28125 -10.171875 C 9.9375 -10.660156 9.378906 -10.90625 8.609375 -10.90625 C 7.566406 -10.90625 6.816406 -10.554688 6.359375 -9.859375 C 5.898438 -9.171875 5.671875 -8.019531 5.671875 -6.40625 L 5.671875 0 L 1.953125 0 L 1.953125 -13.625 L 4.78125 -13.625 L 5.28125 -11.875 L 5.5 -11.875 C 5.90625 -12.53125 6.472656 -13.023438 7.203125 -13.359375 C 7.929688 -13.703125 8.757812 -13.875 9.6875 -13.875 C 11.269531 -13.875 12.472656 -13.445312 13.296875 -12.59375 C 14.117188 -11.738281 14.53125 -10.5 14.53125 -8.875 Z M 14.53125 0 "/></g></g></g><g fill="#000000" fill-opacity="1"><g transform="translate(220.325356, 165.53039)"><g><path d="M 10.59375 0 L 9.875 -1.859375 L 9.78125 -1.859375 C 9.15625 -1.066406 8.507812 -0.515625 7.84375 -0.203125 C 7.1875 0.0976562 6.328125 0.25 5.265625 0.25 C 3.953125 0.25 2.921875 -0.125 2.171875 -0.875 C 1.421875 -1.625 1.046875 -2.6875 1.046875 -4.0625 C 1.046875 -5.507812 1.550781 -6.578125 2.5625 -7.265625 C 3.570312 -7.953125 5.097656 -8.332031 7.140625 -8.40625 L 9.5 -8.484375 L 9.5 -9.078125 C 9.5 -10.460938 8.796875 -11.15625 7.390625 -11.15625 C 6.296875 -11.15625 5.015625 -10.820312 3.546875 -10.15625 L 2.3125 -12.671875 C 3.882812 -13.492188 5.625 -13.90625 7.53125 -13.90625 C 9.351562 -13.90625 10.753906 -13.503906 11.734375 -12.703125 C 12.710938 -11.910156 13.203125 -10.703125 13.203125 -9.078125 L 13.203125 0 Z M 9.5 -6.3125 L 8.0625 -6.265625 C 6.988281 -6.234375 6.1875 -6.035156 5.65625 -5.671875 C 5.125 -5.316406 4.859375 -4.773438 4.859375 -4.046875 C 4.859375 -2.992188 5.460938 -2.46875 6.671875 -2.46875 C 7.523438 -2.46875 8.207031 -2.710938 8.71875 -3.203125 C 9.238281 -3.703125 9.5 -4.363281 9.5 -5.1875 Z M 9.5 -6.3125 "/></g></g></g><g fill="#000000" fill-opacity="1"><g transform="translate(235.396139, 165.53039)"><g/></g></g><g fill="#000000" fill-opacity="1"><g transform="translate(241.87767, 165.53039)"><g><path d="M 6.265625 0.25 C 4.660156 0.25 3.398438 -0.367188 2.484375 -1.609375 C 1.578125 -2.859375 1.125 -4.582031 1.125 -6.78125 C 1.125 -9.019531 1.585938 -10.757812 2.515625 -12 C 3.441406 -13.25 4.722656 -13.875 6.359375 -13.875 C 8.078125 -13.875 9.382812 -13.207031 10.28125 -11.875 L 10.40625 -11.875 C 10.21875 -12.894531 10.125 -13.800781 10.125 -14.59375 L 10.125 -18.953125 L 13.859375 -18.953125 L 13.859375 0 L 11 0 L 10.28125 -1.765625 L 10.125 -1.765625 C 9.28125 -0.421875 7.992188 0.25 6.265625 0.25 Z M 7.5625 -2.71875 C 8.507812 -2.71875 9.203125 -2.992188 9.640625 -3.546875 C 10.085938 -4.097656 10.332031 -5.035156 10.375 -6.359375 L 10.375 -6.765625 C 10.375 -8.222656 10.148438 -9.269531 9.703125 -9.90625 C 9.253906 -10.539062 8.519531 -10.859375 7.5 -10.859375 C 6.675781 -10.859375 6.035156 -10.503906 5.578125 -9.796875 C 5.117188 -9.097656 4.890625 -8.078125 4.890625 -6.734375 C 4.890625 -5.398438 5.117188 -4.394531 5.578125 -3.71875 C 6.046875 -3.050781 6.707031 -2.71875 7.5625 -2.71875 Z M 7.5625 -2.71875 "/></g></g></g><g fill="#000000" fill-opacity="1"><g transform="translate(257.667263, 165.53039)"><g><path d="M 7.59375 -11.234375 C 6.800781 -11.234375 6.179688 -10.984375 5.734375 -10.484375 C 5.285156 -9.984375 5.03125 -9.273438 4.96875 -8.359375 L 10.1875 -8.359375 C 10.164062 -9.273438 9.921875 -9.984375 9.453125 -10.484375 C 8.992188 -10.984375 8.375 -11.234375 7.59375 -11.234375 Z M 8.109375 0.25 C 5.921875 0.25 4.207031 -0.351562 2.96875 -1.5625 C 1.738281 -2.78125 1.125 -4.5 1.125 -6.71875 C 1.125 -9 1.691406 -10.757812 2.828125 -12 C 3.972656 -13.25 5.550781 -13.875 7.5625 -13.875 C 9.488281 -13.875 10.988281 -13.328125 12.0625 -12.234375 C 13.132812 -11.140625 13.671875 -9.625 13.671875 -7.6875 L 13.671875 -5.890625 L 4.890625 -5.890625 C 4.929688 -4.828125 5.242188 -4 5.828125 -3.40625 C 6.410156 -2.8125 7.226562 -2.515625 8.28125 -2.515625 C 9.101562 -2.515625 9.878906 -2.597656 10.609375 -2.765625 C 11.335938 -2.941406 12.101562 -3.21875 12.90625 -3.59375 L 12.90625 -0.71875 C 12.25 -0.394531 11.550781 -0.15625 10.8125 0 C 10.070312 0.164062 9.171875 0.25 8.109375 0.25 Z M 8.109375 0.25 "/></g></g></g><g fill="#000000" fill-opacity="1"><g transform="translate(154.630221, 199.968781)"><g><path d="M 6.015625 -9.90625 L 7.234375 -9.90625 C 8.429688 -9.90625 9.3125 -10.101562 9.875 -10.5 C 10.445312 -10.894531 10.734375 -11.519531 10.734375 -12.375 C 10.734375 -13.21875 10.441406 -13.816406 9.859375 -14.171875 C 9.273438 -14.535156 8.378906 -14.71875 7.171875 -14.71875 L 6.015625 -14.71875 Z M 6.015625 -6.828125 L 6.015625 0 L 2.234375 0 L 2.234375 -17.8125 L 7.4375 -17.8125 C 9.851562 -17.8125 11.640625 -17.367188 12.796875 -16.484375 C 13.960938 -15.609375 14.546875 -14.273438 14.546875 -12.484375 C 14.546875 -11.429688 14.253906 -10.492188 13.671875 -9.671875 C 13.097656 -8.859375 12.285156 -8.222656 11.234375 -7.765625 C 13.910156 -3.753906 15.65625 -1.164062 16.46875 0 L 12.28125 0 L 8.03125 -6.828125 Z M 6.015625 -6.828125 "/></g></g></g><g fill="#000000" fill-opacity="1"><g transform="translate(171.102081, 199.968781)"><g><path d="M 4.90625 -6.828125 C 4.90625 -5.484375 5.125 -4.460938 5.5625 -3.765625 C 6.007812 -3.078125 6.734375 -2.734375 7.734375 -2.734375 C 8.722656 -2.734375 9.4375 -3.078125 9.875 -3.765625 C 10.3125 -4.453125 10.53125 -5.472656 10.53125 -6.828125 C 10.53125 -8.179688 10.3125 -9.191406 9.875 -9.859375 C 9.4375 -10.535156 8.71875 -10.875 7.71875 -10.875 C 6.71875 -10.875 6 -10.539062 5.5625 -9.875 C 5.125 -9.207031 4.90625 -8.191406 4.90625 -6.828125 Z M 14.328125 -6.828125 C 14.328125 -4.617188 13.738281 -2.882812 12.5625 -1.625 C 11.394531 -0.375 9.769531 0.25 7.6875 0.25 C 6.375 0.25 5.21875 -0.0351562 4.21875 -0.609375 C 3.226562 -1.179688 2.460938 -2.003906 1.921875 -3.078125 C 1.390625 -4.148438 1.125 -5.398438 1.125 -6.828125 C 1.125 -9.054688 1.703125 -10.785156 2.859375 -12.015625 C 4.023438 -13.253906 5.660156 -13.875 7.765625 -13.875 C 9.066406 -13.875 10.21875 -13.585938 11.21875 -13.015625 C 12.21875 -12.453125 12.984375 -11.640625 13.515625 -10.578125 C 14.054688 -9.515625 14.328125 -8.265625 14.328125 -6.828125 Z M 14.328125 -6.828125 "/></g></g></g><g fill="#000000" fill-opacity="1"><g transform="translate(186.550541, 199.968781)"><g><path d="M 9.53125 -13.875 C 11.132812 -13.875 12.390625 -13.242188 13.296875 -11.984375 C 14.210938 -10.734375 14.671875 -9.015625 14.671875 -6.828125 C 14.671875 -4.578125 14.203125 -2.832031 13.265625 -1.59375 C 12.328125 -0.363281 11.050781 0.25 9.4375 0.25 C 7.832031 0.25 6.578125 -0.332031 5.671875 -1.5 L 5.40625 -1.5 L 4.78125 0 L 1.953125 0 L 1.953125 -18.953125 L 5.671875 -18.953125 L 5.671875 -14.546875 C 5.671875 -13.984375 5.617188 -13.085938 5.515625 -11.859375 L 5.671875 -11.859375 C 6.535156 -13.203125 7.820312 -13.875 9.53125 -13.875 Z M 8.328125 -10.90625 C 7.410156 -10.90625 6.738281 -10.625 6.3125 -10.0625 C 5.894531 -9.5 5.679688 -8.566406 5.671875 -7.265625 L 5.671875 -6.859375 C 5.671875 -5.398438 5.882812 -4.351562 6.3125 -3.71875 C 6.75 -3.082031 7.4375 -2.765625 8.375 -2.765625 C 9.144531 -2.765625 9.753906 -3.113281 10.203125 -3.8125 C 10.648438 -4.519531 10.875 -5.546875 10.875 -6.890625 C 10.875 -8.222656 10.644531 -9.222656 10.1875 -9.890625 C 9.738281 -10.566406 9.117188 -10.90625 8.328125 -10.90625 Z M 8.328125 -10.90625 "/></g></g></g><g fill="#000000" fill-opacity="1"><g transform="translate(202.340135, 199.968781)"><g><path d="M 4.90625 -6.828125 C 4.90625 -5.484375 5.125 -4.460938 5.5625 -3.765625 C 6.007812 -3.078125 6.734375 -2.734375 7.734375 -2.734375 C 8.722656 -2.734375 9.4375 -3.078125 9.875 -3.765625 C 10.3125 -4.453125 10.53125 -5.472656 10.53125 -6.828125 C 10.53125 -8.179688 10.3125 -9.191406 9.875 -9.859375 C 9.4375 -10.535156 8.71875 -10.875 7.71875 -10.875 C 6.71875 -10.875 6 -10.539062 5.5625 -9.875 C 5.125 -9.207031 4.90625 -8.191406 4.90625 -6.828125 Z M 14.328125 -6.828125 C 14.328125 -4.617188 13.738281 -2.882812 12.5625 -1.625 C 11.394531 -0.375 9.769531 0.25 7.6875 0.25 C 6.375 0.25 5.21875 -0.0351562 4.21875 -0.609375 C 3.226562 -1.179688 2.460938 -2.003906 1.921875 -3.078125 C 1.390625 -4.148438 1.125 -5.398438 1.125 -6.828125 C 1.125 -9.054688 1.703125 -10.785156 2.859375 -12.015625 C 4.023438 -13.253906 5.660156 -13.875 7.765625 -13.875 C 9.066406 -13.875 10.21875 -13.585938 11.21875 -13.015625 C 12.21875 -12.453125 12.984375 -11.640625 13.515625 -10.578125 C 14.054688 -9.515625 14.328125 -8.265625 14.328125 -6.828125 Z M 5.6875 -15.125 L 5.6875 -15.453125 C 7.082031 -17.078125 8.035156 -18.296875 8.546875 -19.109375 L 12.71875 -19.109375 L 12.71875 -18.859375 C 12.289062 -18.441406 11.566406 -17.816406 10.546875 -16.984375 C 9.535156 -16.148438 8.738281 -15.53125 8.15625 -15.125 Z M 5.6875 -15.125 "/></g></g></g><g fill="#000000" fill-opacity="1"><g transform="translate(217.788595, 199.968781)"><g><path d="M 7.6875 -2.71875 C 8.332031 -2.71875 9.113281 -2.859375 10.03125 -3.140625 L 10.03125 -0.375 C 9.101562 0.0390625 7.960938 0.25 6.609375 0.25 C 5.128906 0.25 4.046875 -0.125 3.359375 -0.875 C 2.679688 -1.632812 2.34375 -2.765625 2.34375 -4.265625 L 2.34375 -10.828125 L 0.578125 -10.828125 L 0.578125 -12.40625 L 2.625 -13.640625 L 3.6875 -16.515625 L 6.0625 -16.515625 L 6.0625 -13.625 L 9.875 -13.625 L 9.875 -10.828125 L 6.0625 -10.828125 L 6.0625 -4.265625 C 6.0625 -3.734375 6.207031 -3.34375 6.5 -3.09375 C 6.800781 -2.84375 7.195312 -2.71875 7.6875 -2.71875 Z M 7.6875 -2.71875 "/></g></g></g><g fill="#000000" fill-opacity="1"><g transform="translate(228.61958, 199.968781)"><g><path d="M 1.796875 -17.140625 C 1.796875 -18.347656 2.46875 -18.953125 3.8125 -18.953125 C 5.164062 -18.953125 5.84375 -18.347656 5.84375 -17.140625 C 5.84375 -16.566406 5.671875 -16.117188 5.328125 -15.796875 C 4.992188 -15.472656 4.488281 -15.3125 3.8125 -15.3125 C 2.46875 -15.3125 1.796875 -15.921875 1.796875 -17.140625 Z M 5.671875 0 L 1.953125 0 L 1.953125 -13.625 L 5.671875 -13.625 Z M 5.671875 0 "/></g></g></g><g fill="#000000" fill-opacity="1"><g transform="translate(236.234166, 199.968781)"><g><path d="M 7.484375 0.25 C 3.242188 0.25 1.125 -2.078125 1.125 -6.734375 C 1.125 -9.046875 1.695312 -10.8125 2.84375 -12.03125 C 4 -13.257812 5.65625 -13.875 7.8125 -13.875 C 9.382812 -13.875 10.796875 -13.566406 12.046875 -12.953125 L 10.953125 -10.078125 C 10.367188 -10.304688 9.820312 -10.492188 9.3125 -10.640625 C 8.8125 -10.796875 8.3125 -10.875 7.8125 -10.875 C 5.875 -10.875 4.90625 -9.503906 4.90625 -6.765625 C 4.90625 -4.097656 5.875 -2.765625 7.8125 -2.765625 C 8.519531 -2.765625 9.175781 -2.859375 9.78125 -3.046875 C 10.394531 -3.242188 11.007812 -3.546875 11.625 -3.953125 L 11.625 -0.765625 C 11.019531 -0.378906 10.410156 -0.113281 9.796875 0.03125 C 9.179688 0.175781 8.410156 0.25 7.484375 0.25 Z M 7.484375 0.25 "/></g></g></g><g fill="#000000" fill-opacity="1"><g transform="translate(249.063217, 199.968781)"><g><path d="M 10.59375 0 L 9.875 -1.859375 L 9.78125 -1.859375 C 9.15625 -1.066406 8.507812 -0.515625 7.84375 -0.203125 C 7.1875 0.0976562 6.328125 0.25 5.265625 0.25 C 3.953125 0.25 2.921875 -0.125 2.171875 -0.875 C 1.421875 -1.625 1.046875 -2.6875 1.046875 -4.0625 C 1.046875 -5.507812 1.550781 -6.578125 2.5625 -7.265625 C 3.570312 -7.953125 5.097656 -8.332031 7.140625 -8.40625 L 9.5 -8.484375 L 9.5 -9.078125 C 9.5 -10.460938 8.796875 -11.15625 7.390625 -11.15625 C 6.296875 -11.15625 5.015625 -10.820312 3.546875 -10.15625 L 2.3125 -12.671875 C 3.882812 -13.492188 5.625 -13.90625 7.53125 -13.90625 C 9.351562 -13.90625 10.753906 -13.503906 11.734375 -12.703125 C 12.710938 -11.910156 13.203125 -10.703125 13.203125 -9.078125 L 13.203125 0 Z M 9.5 -6.3125 L 8.0625 -6.265625 C 6.988281 -6.234375 6.1875 -6.035156 5.65625 -5.671875 C 5.125 -5.316406 4.859375 -4.773438 4.859375 -4.046875 C 4.859375 -2.992188 5.460938 -2.46875 6.671875 -2.46875 C 7.523438 -2.46875 8.207031 -2.710938 8.71875 -3.203125 C 9.238281 -3.703125 9.5 -4.363281 9.5 -5.1875 Z M 9.5 -6.3125 "/></g></g></g><g fill="#000000" fill-opacity="1"><g transform="translate(187.970478, 94.240347)"><g><path d="M 5.46875 0 L 3.203125 0 L 3.203125 -8.796875 L 0.296875 -8.796875 L 0.296875 -10.6875 L 8.375 -10.6875 L 8.375 -8.796875 L 5.46875 -8.796875 Z M 5.46875 0 "/></g></g><g transform="translate(196.64149, 94.240347)"><g><path d="M 6.359375 0 L 5.921875 -1.109375 L 5.875 -1.109375 C 5.5 -0.640625 5.109375 -0.3125 4.703125 -0.125 C 4.304688 0.0507812 3.789062 0.140625 3.15625 0.140625 C 2.375 0.140625 1.753906 -0.0820312 1.296875 -0.53125 C 0.847656 -0.976562 0.625 -1.613281 0.625 -2.4375 C 0.625 -3.3125 0.925781 -3.953125 1.53125 -4.359375 C 2.144531 -4.773438 3.0625 -5.003906 4.28125 -5.046875 L 5.703125 -5.09375 L 5.703125 -5.4375 C 5.703125 -6.269531 5.273438 -6.6875 4.421875 -6.6875 C 3.773438 -6.6875 3.007812 -6.488281 2.125 -6.09375 L 1.390625 -7.59375 C 2.328125 -8.09375 3.367188 -8.34375 4.515625 -8.34375 C 5.609375 -8.34375 6.445312 -8.101562 7.03125 -7.625 C 7.625 -7.144531 7.921875 -6.414062 7.921875 -5.4375 L 7.921875 0 Z M 5.703125 -3.78125 L 4.84375 -3.75 C 4.1875 -3.738281 3.703125 -3.625 3.390625 -3.40625 C 3.078125 -3.1875 2.921875 -2.859375 2.921875 -2.421875 C 2.921875 -1.796875 3.28125 -1.484375 4 -1.484375 C 4.507812 -1.484375 4.921875 -1.628906 5.234375 -1.921875 C 5.546875 -2.222656 5.703125 -2.617188 5.703125 -3.109375 Z M 5.703125 -3.78125 "/></g></g><g transform="translate(205.685369, 94.240347)"><g><path d="M 5.734375 -8.328125 C 6.035156 -8.328125 6.285156 -8.304688 6.484375 -8.265625 L 6.3125 -6.171875 C 6.132812 -6.210938 5.914062 -6.234375 5.65625 -6.234375 C 4.945312 -6.234375 4.394531 -6.050781 4 -5.6875 C 3.601562 -5.320312 3.40625 -4.8125 3.40625 -4.15625 L 3.40625 0 L 1.171875 0 L 1.171875 -8.171875 L 2.859375 -8.171875 L 3.1875 -6.796875 L 3.296875 -6.796875 C 3.546875 -7.253906 3.882812 -7.625 4.3125 -7.90625 C 4.75 -8.1875 5.222656 -8.328125 5.734375 -8.328125 Z M 5.734375 -8.328125 "/></g></g><g transform="translate(212.484729, 94.240347)"><g><path d="M 3.75 0.140625 C 2.789062 0.140625 2.035156 -0.226562 1.484375 -0.96875 C 0.941406 -1.71875 0.671875 -2.753906 0.671875 -4.078125 C 0.671875 -5.410156 0.945312 -6.453125 1.5 -7.203125 C 2.0625 -7.953125 2.832031 -8.328125 3.8125 -8.328125 C 4.84375 -8.328125 5.628906 -7.925781 6.171875 -7.125 L 6.234375 -7.125 C 6.128906 -7.738281 6.078125 -8.28125 6.078125 -8.75 L 6.078125 -11.375 L 8.3125 -11.375 L 8.3125 0 L 6.59375 0 L 6.171875 -1.0625 L 6.078125 -1.0625 C 5.566406 -0.257812 4.789062 0.140625 3.75 0.140625 Z M 4.53125 -1.625 C 5.101562 -1.625 5.519531 -1.789062 5.78125 -2.125 C 6.050781 -2.457031 6.203125 -3.019531 6.234375 -3.8125 L 6.234375 -4.0625 C 6.234375 -4.9375 6.097656 -5.5625 5.828125 -5.9375 C 5.554688 -6.320312 5.113281 -6.515625 4.5 -6.515625 C 4 -6.515625 3.613281 -6.300781 3.34375 -5.875 C 3.070312 -5.457031 2.9375 -4.847656 2.9375 -4.046875 C 2.9375 -3.234375 3.070312 -2.625 3.34375 -2.21875 C 3.625 -1.820312 4.019531 -1.625 4.53125 -1.625 Z M 4.53125 -1.625 "/></g></g><g transform="translate(221.959966, 94.240347)"><g><path d="M 4.546875 -6.734375 C 4.078125 -6.734375 3.707031 -6.582031 3.4375 -6.28125 C 3.175781 -5.988281 3.023438 -5.566406 2.984375 -5.015625 L 6.109375 -5.015625 C 6.097656 -5.566406 5.953125 -5.988281 5.671875 -6.28125 C 5.398438 -6.582031 5.023438 -6.734375 4.546875 -6.734375 Z M 4.875 0.140625 C 3.550781 0.140625 2.519531 -0.21875 1.78125 -0.9375 C 1.039062 -1.664062 0.671875 -2.695312 0.671875 -4.03125 C 0.671875 -5.394531 1.007812 -6.453125 1.6875 -7.203125 C 2.375 -7.953125 3.320312 -8.328125 4.53125 -8.328125 C 5.6875 -8.328125 6.585938 -7.992188 7.234375 -7.328125 C 7.878906 -6.671875 8.203125 -5.765625 8.203125 -4.609375 L 8.203125 -3.53125 L 2.9375 -3.53125 C 2.957031 -2.894531 3.140625 -2.398438 3.484375 -2.046875 C 3.835938 -1.691406 4.332031 -1.515625 4.96875 -1.515625 C 5.457031 -1.515625 5.921875 -1.5625 6.359375 -1.65625 C 6.804688 -1.757812 7.265625 -1.925781 7.734375 -2.15625 L 7.734375 -0.4375 C 7.347656 -0.238281 6.929688 -0.09375 6.484375 0 C 6.046875 0.09375 5.507812 0.140625 4.875 0.140625 Z M 4.875 0.140625 "/></g></g></g></svg>