<svg xmlns="http://www.w3.org/2000/svg" xmlns:xlink="http://www.w3.org/1999/xlink" width="559" zoomAndPan="magnify" viewBox="0 0 419.25 297.749993" height="397" preserveAspectRatio="xMidYMid meet" version="1.0"><defs><g/><clipPath id="0decdefdf2"><path d="M 94.203125 54.621094 L 324.574219 54.621094 L 324.574219 252.292969 L 94.203125 252.292969 Z M 94.203125 54.621094 " clip-rule="nonzero"/></clipPath><clipPath id="40f4dc0f8a"><path d="M 262 37.425781 L 277 37.425781 L 277 80 L 262 80 Z M 262 37.425781 " clip-rule="nonzero"/></clipPath></defs><path fill="#f4870a" d="M 161.652344 62.503906 L 255.738281 62.503906 C 256.609375 62.503906 257.3125 61.800781 257.3125 60.933594 L 257.3125 56.210938 C 257.3125 55.34375 256.609375 54.636719 255.738281 54.636719 L 161.652344 54.636719 C 160.785156 54.636719 160.082031 55.34375 160.082031 56.210938 L 160.082031 60.933594 C 160.082031 61.800781 160.785156 62.503906 161.652344 62.503906 " fill-opacity="1" fill-rule="nonzero"/><g clip-path="url(#0decdefdf2)"><path fill="#f4870a" d="M 300.078125 244.554688 L 118.703125 244.554688 C 109.515625 244.554688 102.070312 237.109375 102.070312 227.925781 L 102.070312 117.226562 L 316.707031 117.226562 L 316.707031 227.925781 C 316.707031 237.109375 309.261719 244.554688 300.078125 244.554688 Z M 300.078125 54.636719 L 282.484375 54.636719 C 281.617188 54.636719 280.914062 55.34375 280.914062 56.210938 L 280.914062 60.929688 C 280.914062 61.800781 281.617188 62.503906 282.484375 62.503906 L 300.078125 62.503906 C 309.25 62.503906 316.707031 69.960938 316.707031 79.152344 L 316.707031 109.359375 L 102.070312 109.359375 L 102.070312 79.152344 C 102.070312 69.960938 109.527344 62.503906 118.703125 62.503906 L 134.90625 62.503906 C 135.777344 62.503906 136.480469 61.800781 136.480469 60.929688 L 136.480469 56.210938 C 136.480469 55.34375 135.777344 54.636719 134.90625 54.636719 L 118.703125 54.636719 C 105.203125 54.636719 94.203125 65.636719 94.203125 79.152344 L 94.203125 227.925781 C 94.203125 241.398438 105.226562 252.421875 118.703125 252.421875 L 300.078125 252.421875 C 313.550781 252.421875 324.574219 241.398438 324.574219 227.925781 L 324.574219 79.152344 C 324.574219 65.636719 313.574219 54.636719 300.078125 54.636719 " fill-opacity="1" fill-rule="nonzero"/></g><path fill="#f4870a" d="M 148.28125 81.652344 C 152.183594 81.652344 155.359375 78.488281 155.359375 74.574219 L 155.359375 46.457031 C 155.359375 42.539062 152.183594 39.378906 148.28125 39.378906 C 144.363281 39.378906 141.199219 42.539062 141.199219 46.457031 L 141.199219 74.574219 C 141.199219 78.488281 144.363281 81.652344 148.28125 81.652344 " fill-opacity="1" fill-rule="nonzero"/><g clip-path="url(#40f4dc0f8a)"><path fill="#f4870a" d="M 269.113281 79.71875 C 273.015625 79.71875 276.191406 76.539062 276.191406 72.636719 L 276.191406 44.503906 C 276.191406 40.605469 273.015625 37.425781 269.113281 37.425781 C 265.195312 37.425781 262.035156 40.605469 262.035156 44.503906 L 262.035156 72.636719 C 262.035156 76.539062 265.195312 79.71875 269.113281 79.71875 " fill-opacity="1" fill-rule="nonzero"/></g><g fill="#000000" fill-opacity="1"><g transform="translate(135.710453, 183.742379)"><g><path d="M 7.703125 -12.0625 L 9.296875 -12.0625 C 10.785156 -12.0625 11.894531 -12.351562 12.625 -12.9375 C 13.363281 -13.53125 13.734375 -14.390625 13.734375 -15.515625 C 13.734375 -16.648438 13.425781 -17.488281 12.8125 -18.03125 C 12.195312 -18.570312 11.226562 -18.84375 9.90625 -18.84375 L 7.703125 -18.84375 Z M 18.625 -15.6875 C 18.625 -13.226562 17.851562 -11.347656 16.3125 -10.046875 C 14.78125 -8.753906 12.601562 -8.109375 9.78125 -8.109375 L 7.703125 -8.109375 L 7.703125 0 L 2.875 0 L 2.875 -22.796875 L 10.15625 -22.796875 C 12.914062 -22.796875 15.015625 -22.203125 16.453125 -21.015625 C 17.898438 -19.828125 18.625 -18.050781 18.625 -15.6875 Z M 18.625 -15.6875 "/></g></g></g><g fill="#000000" fill-opacity="1"><g transform="translate(155.763423, 183.742379)"><g><path d="M 13.5625 0 L 12.640625 -2.375 L 12.515625 -2.375 C 11.722656 -1.363281 10.898438 -0.660156 10.046875 -0.265625 C 9.203125 0.117188 8.097656 0.3125 6.734375 0.3125 C 5.054688 0.3125 3.738281 -0.164062 2.78125 -1.125 C 1.820312 -2.082031 1.34375 -3.441406 1.34375 -5.203125 C 1.34375 -7.054688 1.988281 -8.421875 3.28125 -9.296875 C 4.570312 -10.179688 6.523438 -10.671875 9.140625 -10.765625 L 12.15625 -10.859375 L 12.15625 -11.625 C 12.15625 -13.382812 11.253906 -14.265625 9.453125 -14.265625 C 8.054688 -14.265625 6.414062 -13.84375 4.53125 -13 L 2.96875 -16.21875 C 4.96875 -17.269531 7.191406 -17.796875 9.640625 -17.796875 C 11.972656 -17.796875 13.765625 -17.285156 15.015625 -16.265625 C 16.265625 -15.242188 16.890625 -13.695312 16.890625 -11.625 L 16.890625 0 Z M 12.15625 -8.078125 L 10.328125 -8.015625 C 8.941406 -7.972656 7.910156 -7.722656 7.234375 -7.265625 C 6.554688 -6.804688 6.21875 -6.109375 6.21875 -5.171875 C 6.21875 -3.835938 6.988281 -3.171875 8.53125 -3.171875 C 9.632812 -3.171875 10.515625 -3.484375 11.171875 -4.109375 C 11.828125 -4.742188 12.15625 -5.585938 12.15625 -6.640625 Z M 12.15625 -8.078125 "/></g></g></g><g fill="#000000" fill-opacity="1"><g transform="translate(175.052323, 183.742379)"><g><path d="M 7.25 0 L 2.5 0 L 2.5 -24.265625 L 7.25 -24.265625 Z M 7.25 0 "/></g></g></g><g fill="#000000" fill-opacity="1"><g transform="translate(184.798129, 183.742379)"><g><path d="M 9.71875 -14.375 C 8.707031 -14.375 7.914062 -14.050781 7.34375 -13.40625 C 6.769531 -12.769531 6.441406 -11.867188 6.359375 -10.703125 L 13.03125 -10.703125 C 13.007812 -11.867188 12.703125 -12.769531 12.109375 -13.40625 C 11.523438 -14.050781 10.726562 -14.375 9.71875 -14.375 Z M 10.390625 0.3125 C 7.578125 0.3125 5.378906 -0.457031 3.796875 -2 C 2.222656 -3.550781 1.4375 -5.75 1.4375 -8.59375 C 1.4375 -11.507812 2.164062 -13.765625 3.625 -15.359375 C 5.082031 -16.960938 7.101562 -17.765625 9.6875 -17.765625 C 12.144531 -17.765625 14.0625 -17.0625 15.4375 -15.65625 C 16.8125 -14.25 17.5 -12.3125 17.5 -9.84375 L 17.5 -7.53125 L 6.25 -7.53125 C 6.300781 -6.175781 6.703125 -5.117188 7.453125 -4.359375 C 8.203125 -3.609375 9.253906 -3.234375 10.609375 -3.234375 C 11.648438 -3.234375 12.640625 -3.34375 13.578125 -3.5625 C 14.515625 -3.78125 15.492188 -4.125 16.515625 -4.59375 L 16.515625 -0.921875 C 15.679688 -0.503906 14.789062 -0.195312 13.84375 0 C 12.894531 0.207031 11.742188 0.3125 10.390625 0.3125 Z M 10.390625 0.3125 "/></g></g></g><g fill="#000000" fill-opacity="1"><g transform="translate(203.66601, 183.742379)"><g><path d="M 14.65625 -5.171875 C 14.65625 -3.390625 14.035156 -2.03125 12.796875 -1.09375 C 11.554688 -0.15625 9.695312 0.3125 7.21875 0.3125 C 5.945312 0.3125 4.863281 0.222656 3.96875 0.046875 C 3.082031 -0.117188 2.25 -0.367188 1.46875 -0.703125 L 1.46875 -4.625 C 2.351562 -4.207031 3.347656 -3.859375 4.453125 -3.578125 C 5.554688 -3.304688 6.53125 -3.171875 7.375 -3.171875 C 9.101562 -3.171875 9.96875 -3.664062 9.96875 -4.65625 C 9.96875 -5.03125 9.851562 -5.332031 9.625 -5.5625 C 9.394531 -5.800781 9 -6.066406 8.4375 -6.359375 C 7.875 -6.660156 7.125 -7.007812 6.1875 -7.40625 C 4.84375 -7.96875 3.859375 -8.488281 3.234375 -8.96875 C 2.609375 -9.445312 2.148438 -9.992188 1.859375 -10.609375 C 1.578125 -11.234375 1.4375 -11.992188 1.4375 -12.890625 C 1.4375 -14.441406 2.035156 -15.640625 3.234375 -16.484375 C 4.429688 -17.335938 6.132812 -17.765625 8.34375 -17.765625 C 10.445312 -17.765625 12.488281 -17.304688 14.46875 -16.390625 L 13.03125 -12.953125 C 12.164062 -13.328125 11.351562 -13.632812 10.59375 -13.875 C 9.832031 -14.113281 9.054688 -14.234375 8.265625 -14.234375 C 6.859375 -14.234375 6.15625 -13.851562 6.15625 -13.09375 C 6.15625 -12.664062 6.378906 -12.296875 6.828125 -11.984375 C 7.285156 -11.679688 8.28125 -11.222656 9.8125 -10.609375 C 11.175781 -10.054688 12.171875 -9.539062 12.796875 -9.0625 C 13.429688 -8.582031 13.898438 -8.03125 14.203125 -7.40625 C 14.503906 -6.78125 14.65625 -6.035156 14.65625 -5.171875 Z M 14.65625 -5.171875 "/></g></g></g><g fill="#000000" fill-opacity="1"><g transform="translate(219.539979, 183.742379)"><g><path d="M 9.84375 -3.484375 C 10.675781 -3.484375 11.671875 -3.660156 12.828125 -4.015625 L 12.828125 -0.484375 C 11.648438 0.046875 10.195312 0.3125 8.46875 0.3125 C 6.5625 0.3125 5.175781 -0.164062 4.3125 -1.125 C 3.445312 -2.09375 3.015625 -3.535156 3.015625 -5.453125 L 3.015625 -13.859375 L 0.734375 -13.859375 L 0.734375 -15.875 L 3.359375 -17.46875 L 4.71875 -21.140625 L 7.765625 -21.140625 L 7.765625 -17.4375 L 12.640625 -17.4375 L 12.640625 -13.859375 L 7.765625 -13.859375 L 7.765625 -5.453125 C 7.765625 -4.773438 7.953125 -4.273438 8.328125 -3.953125 C 8.710938 -3.640625 9.21875 -3.484375 9.84375 -3.484375 Z M 9.84375 -3.484375 "/></g></g></g><g fill="#000000" fill-opacity="1"><g transform="translate(233.402414, 183.742379)"><g><path d="M 12.21875 -17.765625 C 12.863281 -17.765625 13.398438 -17.71875 13.828125 -17.625 L 13.46875 -13.15625 C 13.082031 -13.257812 12.613281 -13.3125 12.0625 -13.3125 C 10.550781 -13.3125 9.367188 -12.921875 8.515625 -12.140625 C 7.671875 -11.367188 7.25 -10.28125 7.25 -8.875 L 7.25 0 L 2.5 0 L 2.5 -17.4375 L 6.09375 -17.4375 L 6.796875 -14.5 L 7.03125 -14.5 C 7.570312 -15.476562 8.300781 -16.265625 9.21875 -16.859375 C 10.144531 -17.460938 11.144531 -17.765625 12.21875 -17.765625 Z M 12.21875 -17.765625 "/></g></g></g><g fill="#000000" fill-opacity="1"><g transform="translate(247.904173, 183.742379)"><g><path d="M 13.5625 0 L 12.640625 -2.375 L 12.515625 -2.375 C 11.722656 -1.363281 10.898438 -0.660156 10.046875 -0.265625 C 9.203125 0.117188 8.097656 0.3125 6.734375 0.3125 C 5.054688 0.3125 3.738281 -0.164062 2.78125 -1.125 C 1.820312 -2.082031 1.34375 -3.441406 1.34375 -5.203125 C 1.34375 -7.054688 1.988281 -8.421875 3.28125 -9.296875 C 4.570312 -10.179688 6.523438 -10.671875 9.140625 -10.765625 L 12.15625 -10.859375 L 12.15625 -11.625 C 12.15625 -13.382812 11.253906 -14.265625 9.453125 -14.265625 C 8.054688 -14.265625 6.414062 -13.84375 4.53125 -13 L 2.96875 -16.21875 C 4.96875 -17.269531 7.191406 -17.796875 9.640625 -17.796875 C 11.972656 -17.796875 13.765625 -17.285156 15.015625 -16.265625 C 16.265625 -15.242188 16.890625 -13.695312 16.890625 -11.625 L 16.890625 0 Z M 12.15625 -8.078125 L 10.328125 -8.015625 C 8.941406 -7.972656 7.910156 -7.722656 7.234375 -7.265625 C 6.554688 -6.804688 6.21875 -6.109375 6.21875 -5.171875 C 6.21875 -3.835938 6.988281 -3.171875 8.53125 -3.171875 C 9.632812 -3.171875 10.515625 -3.484375 11.171875 -4.109375 C 11.828125 -4.742188 12.15625 -5.585938 12.15625 -6.640625 Z M 12.15625 -8.078125 "/></g></g></g><g fill="#000000" fill-opacity="1"><g transform="translate(267.193073, 183.742379)"><g><path d="M 14.65625 -5.171875 C 14.65625 -3.390625 14.035156 -2.03125 12.796875 -1.09375 C 11.554688 -0.15625 9.695312 0.3125 7.21875 0.3125 C 5.945312 0.3125 4.863281 0.222656 3.96875 0.046875 C 3.082031 -0.117188 2.25 -0.367188 1.46875 -0.703125 L 1.46875 -4.625 C 2.351562 -4.207031 3.347656 -3.859375 4.453125 -3.578125 C 5.554688 -3.304688 6.53125 -3.171875 7.375 -3.171875 C 9.101562 -3.171875 9.96875 -3.664062 9.96875 -4.65625 C 9.96875 -5.03125 9.851562 -5.332031 9.625 -5.5625 C 9.394531 -5.800781 9 -6.066406 8.4375 -6.359375 C 7.875 -6.660156 7.125 -7.007812 6.1875 -7.40625 C 4.84375 -7.96875 3.859375 -8.488281 3.234375 -8.96875 C 2.609375 -9.445312 2.148438 -9.992188 1.859375 -10.609375 C 1.578125 -11.234375 1.4375 -11.992188 1.4375 -12.890625 C 1.4375 -14.441406 2.035156 -15.640625 3.234375 -16.484375 C 4.429688 -17.335938 6.132812 -17.765625 8.34375 -17.765625 C 10.445312 -17.765625 12.488281 -17.304688 14.46875 -16.390625 L 13.03125 -12.953125 C 12.164062 -13.328125 11.351562 -13.632812 10.59375 -13.875 C 9.832031 -14.113281 9.054688 -14.234375 8.265625 -14.234375 C 6.859375 -14.234375 6.15625 -13.851562 6.15625 -13.09375 C 6.15625 -12.664062 6.378906 -12.296875 6.828125 -11.984375 C 7.285156 -11.679688 8.28125 -11.222656 9.8125 -10.609375 C 11.175781 -10.054688 12.171875 -9.539062 12.796875 -9.0625 C 13.429688 -8.582031 13.898438 -8.03125 14.203125 -7.40625 C 14.503906 -6.78125 14.65625 -6.035156 14.65625 -5.171875 Z M 14.65625 -5.171875 "/></g></g></g><g fill="#000000" fill-opacity="1"><g transform="translate(183.443422, 94.240404)"><g><path d="M 5.875 0 L 3.296875 -8.390625 L 3.234375 -8.390625 C 3.328125 -6.679688 3.375 -5.539062 3.375 -4.96875 L 3.375 0 L 1.34375 0 L 1.34375 -10.6875 L 4.421875 -10.6875 L 6.953125 -2.515625 L 7 -2.515625 L 9.6875 -10.6875 L 12.765625 -10.6875 L 12.765625 0 L 10.65625 0 L 10.65625 -5.0625 C 10.65625 -5.300781 10.65625 -5.570312 10.65625 -5.875 C 10.664062 -6.1875 10.703125 -7.019531 10.765625 -8.375 L 10.703125 -8.375 L 7.9375 0 Z M 5.875 0 "/></g></g><g transform="translate(197.561232, 94.240404)"><g><path d="M 6.359375 0 L 5.921875 -1.109375 L 5.875 -1.109375 C 5.5 -0.640625 5.109375 -0.3125 4.703125 -0.125 C 4.304688 0.0507812 3.789062 0.140625 3.15625 0.140625 C 2.375 0.140625 1.753906 -0.0820312 1.296875 -0.53125 C 0.847656 -0.976562 0.625 -1.613281 0.625 -2.4375 C 0.625 -3.3125 0.925781 -3.953125 1.53125 -4.359375 C 2.144531 -4.773438 3.0625 -5.003906 4.28125 -5.046875 L 5.703125 -5.09375 L 5.703125 -5.4375 C 5.703125 -6.269531 5.273438 -6.6875 4.421875 -6.6875 C 3.773438 -6.6875 3.007812 -6.488281 2.125 -6.09375 L 1.390625 -7.59375 C 2.328125 -8.09375 3.367188 -8.34375 4.515625 -8.34375 C 5.609375 -8.34375 6.445312 -8.101562 7.03125 -7.625 C 7.625 -7.144531 7.921875 -6.414062 7.921875 -5.4375 L 7.921875 0 Z M 5.703125 -3.78125 L 4.84375 -3.75 C 4.1875 -3.738281 3.703125 -3.625 3.390625 -3.40625 C 3.078125 -3.1875 2.921875 -2.859375 2.921875 -2.421875 C 2.921875 -1.796875 3.28125 -1.484375 4 -1.484375 C 4.507812 -1.484375 4.921875 -1.628906 5.234375 -1.921875 C 5.546875 -2.222656 5.703125 -2.617188 5.703125 -3.109375 Z M 5.703125 -3.78125 "/></g></g><g transform="translate(206.605111, 94.240404)"><g><path d="M 8.71875 0 L 6.484375 0 L 6.484375 -4.765625 C 6.484375 -5.359375 6.378906 -5.800781 6.171875 -6.09375 C 5.960938 -6.394531 5.628906 -6.546875 5.171875 -6.546875 C 4.546875 -6.546875 4.09375 -6.335938 3.8125 -5.921875 C 3.539062 -5.503906 3.40625 -4.8125 3.40625 -3.84375 L 3.40625 0 L 1.171875 0 L 1.171875 -8.171875 L 2.875 -8.171875 L 3.171875 -7.125 L 3.296875 -7.125 C 3.546875 -7.519531 3.890625 -7.816406 4.328125 -8.015625 C 4.765625 -8.222656 5.257812 -8.328125 5.8125 -8.328125 C 6.757812 -8.328125 7.476562 -8.066406 7.96875 -7.546875 C 8.46875 -7.035156 8.71875 -6.296875 8.71875 -5.328125 Z M 8.71875 0 "/></g></g><g transform="translate(216.445905, 94.240404)"><g><path d="M 8.71875 0 L 6.484375 0 L 6.484375 -4.765625 C 6.484375 -5.953125 6.046875 -6.546875 5.171875 -6.546875 C 4.546875 -6.546875 4.09375 -6.332031 3.8125 -5.90625 C 3.539062 -5.476562 3.40625 -4.789062 3.40625 -3.84375 L 3.40625 0 L 1.171875 0 L 1.171875 -11.375 L 3.40625 -11.375 L 3.40625 -9.0625 C 3.40625 -8.875 3.382812 -8.445312 3.34375 -7.78125 L 3.296875 -7.125 L 3.40625 -7.125 C 3.90625 -7.925781 4.695312 -8.328125 5.78125 -8.328125 C 6.738281 -8.328125 7.46875 -8.066406 7.96875 -7.546875 C 8.46875 -7.035156 8.71875 -6.296875 8.71875 -5.328125 Z M 8.71875 0 "/></g></g><g transform="translate(226.286699, 94.240404)"><g><path d="M 6.359375 0 L 5.921875 -1.109375 L 5.875 -1.109375 C 5.5 -0.640625 5.109375 -0.3125 4.703125 -0.125 C 4.304688 0.0507812 3.789062 0.140625 3.15625 0.140625 C 2.375 0.140625 1.753906 -0.0820312 1.296875 -0.53125 C 0.847656 -0.976562 0.625 -1.613281 0.625 -2.4375 C 0.625 -3.3125 0.925781 -3.953125 1.53125 -4.359375 C 2.144531 -4.773438 3.0625 -5.003906 4.28125 -5.046875 L 5.703125 -5.09375 L 5.703125 -5.4375 C 5.703125 -6.269531 5.273438 -6.6875 4.421875 -6.6875 C 3.773438 -6.6875 3.007812 -6.488281 2.125 -6.09375 L 1.390625 -7.59375 C 2.328125 -8.09375 3.367188 -8.34375 4.515625 -8.34375 C 5.609375 -8.34375 6.445312 -8.101562 7.03125 -7.625 C 7.625 -7.144531 7.921875 -6.414062 7.921875 -5.4375 L 7.921875 0 Z M 5.703125 -3.78125 L 4.84375 -3.75 C 4.1875 -3.738281 3.703125 -3.625 3.390625 -3.40625 C 3.078125 -3.1875 2.921875 -2.859375 2.921875 -2.421875 C 2.921875 -1.796875 3.28125 -1.484375 4 -1.484375 C 4.507812 -1.484375 4.921875 -1.628906 5.234375 -1.921875 C 5.546875 -2.222656 5.703125 -2.617188 5.703125 -3.109375 Z M 3.421875 -9.84375 C 3.265625 -9.84375 3.117188 -9.773438 2.984375 -9.640625 C 2.847656 -9.515625 2.75 -9.320312 2.6875 -9.0625 L 1.59375 -9.0625 C 1.644531 -9.757812 1.84375 -10.304688 2.1875 -10.703125 C 2.539062 -11.109375 3.003906 -11.3125 3.578125 -11.3125 C 3.773438 -11.3125 3.96875 -11.269531 4.15625 -11.1875 C 4.351562 -11.113281 4.546875 -11.023438 4.734375 -10.921875 C 4.921875 -10.828125 5.101562 -10.738281 5.28125 -10.65625 C 5.46875 -10.582031 5.648438 -10.546875 5.828125 -10.546875 C 5.972656 -10.546875 6.113281 -10.609375 6.25 -10.734375 C 6.394531 -10.867188 6.5 -11.066406 6.5625 -11.328125 L 7.65625 -11.328125 C 7.59375 -10.617188 7.382812 -10.066406 7.03125 -9.671875 C 6.6875 -9.273438 6.226562 -9.078125 5.65625 -9.078125 C 5.457031 -9.078125 5.257812 -9.113281 5.0625 -9.1875 C 4.875 -9.269531 4.6875 -9.359375 4.5 -9.453125 C 4.3125 -9.546875 4.128906 -9.632812 3.953125 -9.71875 C 3.773438 -9.800781 3.597656 -9.84375 3.421875 -9.84375 Z M 3.421875 -9.84375 "/></g></g></g></svg>