<?xml version="1.0" standalone="no"?>
<svg xmlns:xlink="http://www.w3.org/1999/xlink" id="wave" style="transform:rotate(180deg); transition: 0.3s" viewBox="0 0 1440 490" version="1.1" xmlns="http://www.w3.org/2000/svg"><defs><linearGradient id="sw-gradient-0" x1="0" x2="0" y1="1" y2="0"><stop stop-color="rgba(255, 255, 255, 1)" offset="0%"/><stop stop-color="rgba(255, 255, 255, 1)" offset="100%"/></linearGradient></defs><path style="transform:translate(0, 0px); opacity:1" fill="url(#sw-gradient-0)" d="M0,147L60,179.7C120,212,240,278,360,326.7C480,376,600,408,720,367.5C840,327,960,212,1080,196C1200,180,1320,261,1440,285.8C1560,310,1680,278,1800,285.8C1920,294,2040,343,2160,375.7C2280,408,2400,425,2520,375.7C2640,327,2760,212,2880,163.3C3000,114,3120,131,3240,163.3C3360,196,3480,245,3600,277.7C3720,310,3840,327,3960,294C4080,261,4200,180,4320,130.7C4440,82,4560,65,4680,57.2C4800,49,4920,49,5040,98C5160,147,5280,245,5400,261.3C5520,278,5640,212,5760,171.5C5880,131,6000,114,6120,155.2C6240,196,6360,294,6480,277.7C6600,261,6720,131,6840,122.5C6960,114,7080,229,7200,253.2C7320,278,7440,212,7560,212.3C7680,212,7800,278,7920,269.5C8040,261,8160,180,8280,171.5C8400,163,8520,229,8580,261.3L8640,294L8640,490L8580,490C8520,490,8400,490,8280,490C8160,490,8040,490,7920,490C7800,490,7680,490,7560,490C7440,490,7320,490,7200,490C7080,490,6960,490,6840,490C6720,490,6600,490,6480,490C6360,490,6240,490,6120,490C6000,490,5880,490,5760,490C5640,490,5520,490,5400,490C5280,490,5160,490,5040,490C4920,490,4800,490,4680,490C4560,490,4440,490,4320,490C4200,490,4080,490,3960,490C3840,490,3720,490,3600,490C3480,490,3360,490,3240,490C3120,490,3000,490,2880,490C2760,490,2640,490,2520,490C2400,490,2280,490,2160,490C2040,490,1920,490,1800,490C1680,490,1560,490,1440,490C1320,490,1200,490,1080,490C960,490,840,490,720,490C600,490,480,490,360,490C240,490,120,490,60,490L0,490Z"/></svg>